<svg xmlns="http://www.w3.org/2000/svg" viewBox="0 0 26 26">
  <path d="M1 0C0.449219 0 0 0.449219 0 1L0 5C0 5.550781 0.449219 6 1 6L4.96875 6C5.519531 6 5.96875 5.550781 5.96875 5L5.96875 1C5.96875 0.449219 5.519531 0 4.96875 0 Z M 9 0L9 2L26 2L26 0 Z M 9 4L9 6L24 6L24 4 Z M 1 10C0.449219 10 0 10.449219 0 11L0 15C0 15.550781 0.449219 16 1 16L4.96875 16C5.519531 16 5.96875 15.550781 5.96875 15L5.96875 11C5.96875 10.449219 5.519531 10 4.96875 10 Z M 9 10L9 12L26 12L26 10 Z M 9 14L9 16L24 16L24 14 Z M 1 20C0.449219 20 0 20.449219 0 21L0 25C0 25.550781 0.449219 26 1 26L4.96875 26C5.519531 26 5.96875 25.550781 5.96875 25L5.96875 21C5.96875 20.449219 5.519531 20 4.96875 20 Z M 9 20L9 22L26 22L26 20 Z M 9 24L9 26L24 26L24 24Z" fill="#FFFFFF" />
</svg>