<?xml version="1.0" encoding="utf-8"?>
<svg xmlns="http://www.w3.org/2000/svg" viewBox="0 0 32 32" width="64" height="64">
  <path d="M3.71875 2.28125L2.28125 3.71875L9.65625 11.09375C9.652344 11.101563 9.660156 11.117188 9.65625 11.125L11.09375 12.53125C11.089844 12.539063 11.097656 12.554688 11.09375 12.5625L13.28125 14.71875C13.277344 14.726563 13.285156 14.742188 13.28125 14.75L28.28125 29.71875L29.71875 28.28125L23.46875 22.03125C27.503906 19.832031 29.8125 16.59375 29.8125 16.59375L30.21875 16L29.8125 15.40625C29.8125 15.40625 24.945313 8.609375 17 8.0625C16.671875 8.019531 16.339844 8 16 8C15.679688 8 15.375 8.023438 15.0625 8.0625C13.410156 8.171875 11.871094 8.527344 10.5 9.0625 Z M 16 10C19.308594 10 22 12.691406 22 16C22 17.289063 21.601563 18.488281 20.90625 19.46875L18.71875 17.25C18.898438 16.867188 19 16.453125 19 16C19 14.34375 17.65625 13 16 13C15.546875 13 15.132813 13.101563 14.75 13.28125L12.53125 11.09375C13.285156 10.558594 14.171875 10.203125 15.125 10.0625C15.417969 10.042969 15.699219 10 16 10 Z M 6.78125 11.0625C3.914063 13.050781 2.277344 15.285156 2.1875 15.40625L1.78125 16L2.1875 16.59375C2.398438 16.886719 7.199219 23.402344 15 23.9375C15.328125 23.980469 15.660156 24 16 24C16.273438 24 16.539063 23.984375 16.8125 23.96875C16.867188 23.964844 16.914063 23.945313 16.96875 23.9375C17.753906 23.882813 18.535156 23.773438 19.3125 23.59375L17.59375 21.875C17.582031 21.875 17.574219 21.875 17.5625 21.875L17.5 21.8125C17.015625 21.941406 16.523438 22 16 22C15.78125 22 15.558594 21.980469 15.34375 21.96875C12.335938 21.648438 10 19.089844 10 16C10 15.476563 10.058594 14.984375 10.1875 14.5L8.625 12.90625C8.222656 13.855469 8 14.902344 8 16C8 17.472656 8.425781 18.84375 9.125 20.03125C6.75 18.648438 5.046875 16.898438 4.28125 16C4.949219 15.21875 6.308594 13.773438 8.21875 12.5 Z M 22.84375 11.90625C25.523438 13.457031 27.191406 15.476563 27.625 16.03125C27.066406 16.730469 25.535156 18.578125 22.875 20.09375C23.589844 18.898438 24 17.492188 24 16C24 14.5 23.5625 13.105469 22.84375 11.90625Z" fill="#FDFDF4" />
</svg>